<svg width="542" height="268" viewBox="0 0 542 268" fill="none" xmlns="http://www.w3.org/2000/svg">
<g filter="url(#filter0_d_198_1733)">
<path fill-rule="evenodd" clip-rule="evenodd" d="M352.93 46.8113C336.659 46.8113 321.492 51.5332 308.723 59.6813C297.639 54.1231 285.126 50.9947 271.883 50.9947C235.472 50.9947 204.585 74.6414 193.739 107.415C181.338 107.782 169.626 110.893 159.188 116.162C150.762 113.25 141.715 111.668 132.299 111.668C86.85 111.668 50.0065 148.512 50.0065 193.961C50.0065 200.872 50.8585 207.584 52.4632 213.998H487.612C489.988 206.31 491.268 198.14 491.268 189.671C491.268 152.663 466.839 121.361 433.227 111.01C424.983 74.2657 392.163 46.8113 352.93 46.8113Z" fill="white"/>
</g>
<defs>
<filter id="filter0_d_198_1733" x="0.00634766" y="0.811279" width="541.261" height="267.187" filterUnits="userSpaceOnUse" color-interpolation-filters="sRGB">
<feFlood flood-opacity="0" result="BackgroundImageFix"/>
<feColorMatrix in="SourceAlpha" type="matrix" values="0 0 0 0 0 0 0 0 0 0 0 0 0 0 0 0 0 0 127 0" result="hardAlpha"/>
<feOffset dy="4"/>
<feGaussianBlur stdDeviation="25"/>
<feComposite in2="hardAlpha" operator="out"/>
<feColorMatrix type="matrix" values="0 0 0 0 0.5375 0 0 0 0 0.386608 0 0 0 0 0.0940625 0 0 0 0.55 0"/>
<feBlend mode="normal" in2="BackgroundImageFix" result="effect1_dropShadow_198_1733"/>
<feBlend mode="normal" in="SourceGraphic" in2="effect1_dropShadow_198_1733" result="shape"/>
</filter>
</defs>
</svg>
